<?xml version="1.0" encoding="utf-8"?>
<!-- Generator: Adobe Illustrator 26.3.1, SVG Export Plug-In . SVG Version: 6.00 Build 0)  -->
<svg version="1.1"
	 id="Layer_1" xmlns:rdf="http://www.w3.org/1999/02/22-rdf-syntax-ns#" xmlns:svg="http://www.w3.org/2000/svg" xmlns:dc="http://purl.org/dc/elements/1.1/" xmlns:inkscape="http://www.inkscape.org/namespaces/inkscape" xmlns:sodipodi="http://sodipodi.sourceforge.net/DTD/sodipodi-0.dtd" xmlns:cc="http://creativecommons.org/ns#"
	 xmlns="http://www.w3.org/2000/svg" xmlns:xlink="http://www.w3.org/1999/xlink" x="0px" y="0px" viewBox="0 0 74 74"
	 style="enable-background:new 0 0 74 74;" xml:space="preserve">
<style type="text/css">
	.st0{fill:#FFFFFF;}
</style>
<g transform="translate(0,-952.36218)">
	<path class="st0" d="M13,952.4c-2,0-2.8,0.7-4,2l-7,8c-1.5,1.7-2,4.3-2,7c0,9.1,6.8,23.8,20,37s27.9,20,37,20c2.7,0,5.3-0.5,7-2
		l8-7c1.3-1.2,2-2,2-4c0-1.5-0.8-2.8-2-4l-11-11c-1.2-1.2-2.3-2-4-2c-1.8,0-2.9,0.9-4,2l-4,4c-1.8,1.8-3.2,1.9-5,1l-21-21
		c-0.9-1.8-0.8-3.2,1-5l4-4c1.1-1.1,2-2.2,2-4c0-1.7-0.8-2.8-2-4l-11-11C15.8,953.2,14.5,952.3,13,952.4L13,952.4z"/>
</g>
</svg>
