<?xml version="1.0" encoding="utf-8"?>
<!-- Generator: Adobe Illustrator 26.3.1, SVG Export Plug-In . SVG Version: 6.00 Build 0)  -->
<svg version="1.1" id="Layer_1" xmlns="http://www.w3.org/2000/svg" xmlns:xlink="http://www.w3.org/1999/xlink" x="0px" y="0px"
	 viewBox="0 0 100 101.1" style="enable-background:new 0 0 100 101.1;" xml:space="preserve">
<path d="M82.8,29.2c-0.3-0.8-0.9-1.3-1.7-1.3l-15.9-1.2l3-18.5c0.1-0.9-0.3-1.7-1.1-2.1c-0.8-0.4-1.7-0.3-2.3,0.3L43.4,27.3
	l-2.7-8.2c-0.2-0.6-0.7-1.1-1.4-1.3c-0.6-0.2-1.3,0-1.8,0.4L22,31.7l-0.3-0.8c0.1-0.1,0.1-0.1,0.2-0.2c0.8-1,1.1-2.2,1-3.4
	c-0.3-2.5-2.6-4.3-5.1-4c-1.2,0.1-2.3,0.8-3.1,1.7c-0.8,1-1.1,2.2-1,3.4c0.3,2.2,2.1,3.9,4.3,4l21.5,59c0.3,0.8,1.1,1.3,1.9,1.3
	c0.2,0,0.5,0,0.7-0.1c1-0.4,1.6-1.5,1.2-2.6L34,64.8l10.3-10.4l1.8,5.7c0,0,0,0,0,0.1c0,0.1,0.1,0.2,0.2,0.3c0,0,0,0.1,0,0.1
	c0.1,0.1,0.2,0.2,0.3,0.3c0,0,0.1,0,0.1,0.1c0.1,0.1,0.2,0.1,0.3,0.2c0,0,0.1,0,0.1,0.1c0.1,0.1,0.2,0.1,0.3,0.1c0,0,0.1,0,0.1,0
	c0,0,0,0,0,0c0.2,0,0.3,0.1,0.5,0.1c0,0,0,0,0,0c0,0,0,0,0,0c0.1,0,0.2,0,0.3,0c0.1,0,0.1,0,0.2,0c0.1,0,0.1,0,0.2-0.1
	c0.1,0,0.1-0.1,0.2-0.1c0.1,0,0.1-0.1,0.2-0.1c0,0,0.1-0.1,0.1-0.1c0,0,0.1-0.1,0.1-0.1l32.8-29.7C82.8,30.8,83.1,29.9,82.8,29.2z
	 M23.4,35.7l14.5-12.5l7.9,24.1L32.5,60.6L23.4,35.7z M50.1,55l0-7.2c0,0,0,0,0,0c0,0,0-0.1,0-0.1c0-0.1,0-0.3-0.1-0.4
	c0,0,0,0,0-0.1l-5.1-15.7c0,0,0,0,0,0l18.4-18l-2.4,14.6c-0.1,0.6,0.1,1.1,0.4,1.6s0.9,0.7,1.4,0.8l13.5,1L50.1,55z"/>
</svg>
