<?xml version="1.0" encoding="utf-8"?>
<!-- Generator: Adobe Illustrator 26.3.1, SVG Export Plug-In . SVG Version: 6.00 Build 0)  -->
<svg version="1.1" id="Layer_1" xmlns="http://www.w3.org/2000/svg" xmlns:xlink="http://www.w3.org/1999/xlink" x="0px" y="0px"
	 viewBox="0 0 421.1 421.1" style="enable-background:new 0 0 421.1 421.1;" xml:space="preserve">
<style type="text/css">
	.st0{fill:#010002;}
</style>
<g>
	<circle class="st0" cx="99.4" cy="315.4" r="20.3"/>
	<circle class="st0" cx="173.9" cy="315.4" r="20.3"/>
	<circle class="st0" cx="247.1" cy="315.4" r="20.3"/>
	<circle class="st0" cx="328.4" cy="315.4" r="20.3"/>
	<circle class="st0" cx="247.1" cy="246.3" r="20.3"/>
	<path class="st0" d="M351.2,40.6h-2.5c0-22.5-18.2-40.6-40.6-40.6s-40.6,18.2-40.6,40.6h-107c0-22.5-18.2-40.6-40.6-40.6
		S79.1,18.2,79.1,40.6h-9.3c-35,0-63.4,28.4-63.4,63.4v0v253.6c0,35,28.4,63.4,63.4,63.4h281.5c35,0,63.4-28.4,63.4-63.4V104.1v0
		C414.7,69.1,386.2,40.6,351.2,40.6z M372.1,356.5c0,10.4-8.5,19-18.9,19H70.5c-10.5,0-19-8.5-19-19V192.8h320.5V356.5z"/>
	<circle class="st0" cx="328.4" cy="246.3" r="20.3"/>
</g>
</svg>
