<?xml version="1.0" encoding="utf-8"?>
<!-- Generator: Adobe Illustrator 26.3.1, SVG Export Plug-In . SVG Version: 6.00 Build 0)  -->
<svg version="1.1" id="Layer_1" xmlns="http://www.w3.org/2000/svg" xmlns:xlink="http://www.w3.org/1999/xlink" x="0px" y="0px"
	 viewBox="0 0 100 101.4" style="enable-background:new 0 0 100 101.4;" xml:space="preserve">
<style type="text/css">
	.st0{clip-path:url(#SVGID_00000176016221493844846180000017379172229855956645_);}
</style>
<g>
	<defs>
		<rect id="SVGID_1_" width="100" height="100"/>
	</defs>
	<clipPath id="SVGID_00000021106237620805818840000006815053845870752942_">
		<use xlink:href="#SVGID_1_"  style="overflow:visible;"/>
	</clipPath>
	<g style="clip-path:url(#SVGID_00000021106237620805818840000006815053845870752942_);">
		<path d="M50,91C27.4,91,9.2,72.6,9.2,50.1S27.5,9.2,50.1,9.3c22.6,0,40.8,18.4,40.8,40.9c0,16.4-9.9,31.2-25,37.6
			C60.9,89.9,55.5,91,50,91z M50,75c-1.7,0-3,1.3-3,3s1.3,3,3,3s3-1.3,3-3S51.7,75,50,75z M33.7,43.2c-1.1,0-2,0.9-2,2
			c0,0.9,0.6,1.7,1.5,1.9l12.6,3.4c0.5,2.2,2.6,3.5,4.7,3.1c1.9-0.4,3.2-2.1,3.2-4l20.5-11.8c1-0.5,1.3-1.8,0.8-2.7
			c-0.5-1-1.8-1.3-2.7-0.8c0,0,0,0,0,0L51.6,46.2c-1.5-0.8-3.3-0.6-4.6,0.5l-12.8-3.4C34,43.2,33.9,43.2,33.7,43.2L33.7,43.2z
			 M78,47c-1.7,0-3,1.3-3,3s1.3,3,3,3s3-1.3,3-3S79.7,47,78,47z M22,47c-1.7,0-3,1.3-3,3s1.3,3,3,3s3-1.3,3-3S23.7,47,22,47z M50,19
			c-1.7,0-3,1.3-3,3s1.3,3,3,3s3-1.3,3-3S51.7,19,50,19z"/>
	</g>
</g>
</svg>
